<svg width="722.000000" height="244.000000" viewBox="0 0 722 244" fill="none" xmlns="http://www.w3.org/2000/svg" xmlns:xlink="http://www.w3.org/1999/xlink">
	<desc>
			Created with Pixso.
	</desc>
	<defs/>
	<g opacity="0.700000">
		<path id="text__COLOR:landing-logo" d="M218.691 222.15C212.062 226.463 205.383 230.118 198.755 233.07C172.576 244.731 147.566 245.309 129.528 232.832C125.407 229.982 121.801 226.554 118.709 222.621C137.825 209.818 156.399 191.651 172.051 169.181C209.688 115.144 218.023 54.0225 194.764 21.8811C201.409 17.5543 208.104 13.8894 214.748 10.9303C240.927 -0.730957 265.937 -1.30896 283.975 11.1677C288.085 14.0104 291.684 17.4279 294.771 21.3478C275.637 34.1527 257.046 52.3308 241.383 74.819C203.732 128.873 195.403 190.017 218.691 222.15ZM193.561 20.2806C226.8 -1.39941 261.468 -6.83191 285.118 9.52686C289.452 12.5243 293.227 16.1229 296.448 20.2391C329.657 -1.40637 364.284 -6.82141 387.911 9.52686C392.258 12.5344 396.043 16.1471 399.271 20.2806C432.51 -1.39941 467.178 -6.83191 490.828 9.52686C495.161 12.5243 498.937 16.1229 502.158 20.2391C535.367 -1.40637 569.993 -6.82141 593.621 9.52686C597.968 12.5343 601.752 16.147 604.979 20.2805C638.219 -1.39941 672.887 -6.83191 696.537 9.52686C712.784 20.7644 721.179 40.4502 722 64.1897L719.996 64.1897C719.178 40.8978 710.939 21.9208 695.394 11.1677C677.355 -1.30896 652.346 -0.730957 626.166 10.9303C619.523 13.8894 612.828 17.5543 606.183 21.881C629.443 54.0223 621.107 115.144 583.469 169.181C567.818 191.651 549.244 209.818 530.128 222.621C533.219 226.554 536.826 229.982 540.947 232.832C558.985 245.309 583.995 244.731 610.174 233.07C621.608 227.976 633.199 220.791 644.419 211.74L644.419 214.299C607.465 243.586 566.575 252.991 539.804 234.473C535.459 231.468 531.677 227.859 528.449 223.731C495.227 245.401 460.578 250.829 436.94 234.473C432.604 231.473 428.827 227.871 425.605 223.75C392.38 245.405 357.733 250.824 334.094 234.473C329.75 231.468 325.967 227.859 322.74 223.73C289.518 245.401 254.869 250.829 231.23 234.473C226.895 231.473 223.118 227.871 219.896 223.75C186.671 245.405 152.024 250.824 128.385 234.473C124.04 231.468 120.258 227.859 117.031 223.73C83.8076 245.401 49.1602 250.829 25.5215 234.473C-12.1387 208.416 -7.59375 136.936 35.6729 74.819C78.9395 12.7018 144.543 -16.5305 182.202 9.52686C186.549 12.5344 190.333 16.1471 193.561 20.2806ZM115.827 222.13C109.19 226.452 102.503 230.113 95.8682 233.069C69.6973 244.731 44.6963 245.309 26.6641 232.832C8.63281 220.355 0.435547 196.807 2.24902 168.293C4.05957 139.822 15.8574 106.767 37.3174 75.957C58.7773 45.1471 85.7256 22.5741 111.855 10.9305C138.025 -0.730591 163.027 -1.30859 181.059 11.168C185.182 14.0206 188.791 17.4521 191.883 21.3895C172.766 34.1924 154.191 52.3553 138.54 74.819C100.885 128.862 92.5488 189.992 115.827 222.13ZM117.502 221.025C107.916 207.833 103.76 189.427 105.104 168.292C106.915 139.822 118.718 106.767 140.185 75.9567C155.737 53.6351 174.172 35.6371 193.089 22.9865C202.666 36.1776 206.818 54.5792 205.475 75.7073C203.664 104.178 191.865 137.233 170.405 168.043C154.854 190.371 136.419 208.374 117.502 221.025ZM220.367 221.045C210.773 207.852 206.613 189.438 207.958 168.293C209.769 139.822 221.567 106.767 243.027 75.957C258.593 53.61 277.045 35.5963 295.979 22.9435C303.792 33.6804 308.005 47.8768 308.578 64.1897L310.581 64.1897C310.007 47.5897 305.729 32.9718 297.653 21.8385C304.275 17.5304 310.946 13.8799 317.565 10.9305C343.735 -0.730591 368.736 -1.30859 386.769 11.168C390.892 14.0206 394.5 17.4521 397.593 21.3895C378.476 34.1924 359.901 52.3553 344.249 74.819C306.595 128.862 298.259 189.992 321.536 222.13C314.899 226.452 308.212 230.113 301.577 233.069C275.407 244.731 250.405 245.309 232.374 232.832C228.262 229.987 224.661 226.566 221.574 222.641C225.411 220.073 229.227 217.29 233 214.299L233 211.74C228.831 215.104 224.611 218.209 220.367 221.045ZM514.287 64.1897C513.714 47.8768 509.501 33.6804 501.688 22.9435C482.754 35.5963 464.302 53.61 448.736 75.957C427.276 106.767 415.479 139.822 413.668 168.293C412.323 189.438 416.483 207.852 426.076 221.045C430.32 218.209 434.541 215.104 438.71 211.74L438.71 214.299C434.936 217.29 431.12 220.074 427.283 222.641C430.37 226.566 433.971 229.987 438.083 232.832C456.115 245.309 481.116 244.731 507.287 233.069C513.922 230.113 520.608 226.452 527.246 222.13C503.968 189.992 512.304 128.862 549.959 74.819C565.61 52.3552 584.185 34.1923 603.302 21.3894C600.209 17.4521 596.601 14.0206 592.478 11.168C574.446 -1.30859 549.444 -0.730591 523.274 10.9305C516.655 13.8799 509.984 17.5304 503.363 21.8385C511.438 32.9718 515.716 47.5897 516.291 64.1897L514.287 64.1897ZM489.685 11.1677C493.794 14.0104 497.394 17.4279 500.479 21.3478C481.347 34.1527 462.756 52.3308 447.092 74.819C409.441 128.873 401.113 190.017 424.4 222.15C417.771 226.463 411.092 230.118 404.465 233.07C378.286 244.731 353.275 245.309 335.237 232.832C331.117 229.982 327.51 226.554 324.418 222.621C343.535 209.818 362.108 191.651 377.76 169.181C415.397 115.144 423.733 54.0225 400.474 21.8811C407.118 17.5543 413.814 13.8894 420.457 10.9303C446.637 -0.730957 471.646 -1.30896 489.685 11.1677ZM581.824 168.043C566.272 190.371 547.838 208.374 528.921 221.025C519.335 207.833 515.179 189.427 516.522 168.292C518.334 139.822 530.137 106.767 551.604 75.9567C567.156 53.6351 585.591 35.637 604.508 22.9863C614.085 36.1776 618.237 54.5792 616.894 75.7073C615.083 104.178 603.284 137.233 581.824 168.043ZM323.212 221.025C342.128 208.374 360.562 190.371 376.115 168.043C397.575 137.233 409.374 104.178 411.184 75.7073C412.527 54.5792 408.375 36.1776 398.799 22.9863C379.881 35.6371 361.447 53.6351 345.895 75.9567C324.427 106.767 312.625 139.822 310.813 168.292C309.47 189.427 313.626 207.833 323.212 221.025Z" fill="#FFFFFF" fill-opacity="1.000000" fill-rule="evenodd"/>
	</g>
</svg>
